# xmcd CD database file
#
# Track frame offsets:
#	150
#	9715
#	25375
#	38460
#	58314
#	72910
#	76160
#	95815
#	110153
#	133950
#	145313
#	165435
#
# Disc length: 2483 seconds
#
# Revision: 1
# Processed by: cddbd v1.5.2PL0 Copyright (c) Steve Scherf et al.
# Submitted via: CDex 1.51
#
DISCID=a909b10c
DTITLE=Dukes of Windsor - The Others
DYEAR=2006
DGENRE=New Age
TTITLE0=you scream
TTITLE1=the others
TTITLE2=handsome man
TTITLE3=so beautiful
TTITLE4=a la na na na
TTITLE5=banter
TTITLE6=lover now
TTITLE7=kings of sound
TTITLE8=the pretty girls
TTITLE9=boy inside the radio
TTITLE10=tear this party down
TTITLE11=children of tomorrow
EXTD=YEAR: 2006
EXTT0=
EXTT1=
EXTT2=
EXTT3=
EXTT4=
EXTT5=
EXTT6=
EXTT7=
EXTT8=
EXTT9=
EXTT10=
EXTT11=
PLAYORDER=
